<svg width="128" height="128" viewBox="0 0 128 128" fill="none" xmlns="http://www.w3.org/2000/svg">
<circle cx="64" cy="64" r="64" fill="#1E293B"/>
<g filter="url(#filter0_i_1_5)">
<path d="M65.6094 96.8281V102.312H60.4531V96.8281H55.25V91.8594H70.625V96.8281H65.6094ZM47.9375 67.1094L44.1875 86H35.0938L39.0312 67.2969C40.1562 61.9219 41.1875 58.1406 42.125 55.9531C43.0625 53.7344 44.2344 51.9375 45.6406 50.5625C47.0781 49.1875 49 48.0156 51.4062 47.0469L37.8594 28.4844H48.5L69.6406 57.5938C71.9844 55.4062 73.8438 52.7656 75.2188 49.6719C76.625 46.5469 77.5469 42.9688 77.9844 38.9375L79.0625 28.4844H87.9688L86.8906 38.75C86.5469 42.1875 85.9219 45.2031 85.0156 47.7969C84.3906 49.5781 83.6406 51.2812 82.7656 52.9062C81.8906 54.5 80.7656 56.1562 79.3906 57.875C78.0469 59.5938 76.2969 61.5156 74.1406 63.6406L91.0625 86H80.0938L55.3438 52.3906C52.8438 53.6094 51.0625 55.7188 50 58.7188C49.6875 59.5 49.3594 60.5938 49.0156 62C48.7031 63.4062 48.3438 65.1094 47.9375 67.1094Z" fill="#709DE8" fill-opacity="0.73"/>
</g>
<defs>
<filter id="filter0_i_1_5" x="35.0938" y="28.4844" width="55.9688" height="77.8281" filterUnits="userSpaceOnUse" color-interpolation-filters="sRGB">
<feFlood flood-opacity="0" result="BackgroundImageFix"/>
<feBlend mode="normal" in="SourceGraphic" in2="BackgroundImageFix" result="shape"/>
<feColorMatrix in="SourceAlpha" type="matrix" values="0 0 0 0 0 0 0 0 0 0 0 0 0 0 0 0 0 0 127 0" result="hardAlpha"/>
<feOffset dy="4"/>
<feGaussianBlur stdDeviation="2"/>
<feComposite in2="hardAlpha" operator="arithmetic" k2="-1" k3="1"/>
<feColorMatrix type="matrix" values="0 0 0 0 0 0 0 0 0 0 0 0 0 0 0 0 0 0 0.25 0"/>
<feBlend mode="normal" in2="shape" result="effect1_innerShadow_1_5"/>
</filter>
</defs>
</svg>
